<?xml version="1.0" encoding="UTF-8"?>
<svg xmlns="http://www.w3.org/2000/svg" width="652" height="273" viewBox="0 0 652 273" fill="none">
  <path d="M628.896 273L18.4678 273C5.47704 273 -5.15962 261.755 2.67547 251.393C7.58764 244.896 14.7683 239.054 23.8371 234.51C64.9085 213.982 132.454 222.132 169.979 199.239C191.917 185.856 197.112 165.428 197.69 146.51C198.185 127.592 195.38 108.07 205.69 90.1584C225.153 56.3976 295.667 37.5801 349.522 51.7687C374.511 58.3599 394.387 70.3849 417.067 79.4918C439.83 88.5987 469.025 94.8376 493.932 88.1458C544.488 74.561 534.261 23.3412 580.941 5.32875C596.885 -0.837002 616.605 -1.31861 634.716 2.17552C644.72 4.1056 651.125 13.4052 651.125 23.594L651.125 250.771C651.125 263.048 641.173 273 628.896 273Z" fill="url(#paint0_linear_1203_1689)"></path>
  <defs>
    <linearGradient id="paint0_linear_1203_1689" x1="636.879" y1="63.1887" x2="226.153" y2="504.469" gradientUnits="userSpaceOnUse">
      <stop offset="0.173077" stop-color="#5EB1BF"></stop>
      <stop offset="1" stop-color="white" stop-opacity="0"></stop>
    </linearGradient>
  </defs>
</svg>
