<?xml version="1.0" encoding="UTF-8"?>
<svg xmlns="http://www.w3.org/2000/svg" width="277" height="100" viewBox="0 0 277 100" fill="none">
  <path d="M267.025 99.9953L12.5687 99.9952C1.46389 99.9952 -5.14508 90.2312 5.07867 85.8962C22.8596 78.3767 52.1017 81.3624 68.3474 72.9767C77.8448 68.0743 83.1761 62.8363 83.426 55.9066C83.6402 48.9769 86.0771 37.0982 90.5402 30.5371C98.9665 18.1705 122.761 13.7608 146.076 18.9581C156.895 21.3725 165.5 25.7773 175.319 29.1131C185.173 32.449 197.813 34.7343 208.595 32.2831C230.482 27.307 226.055 8.54513 246.264 1.94716C250.125 0.683911 254.497 0.0720407 258.973 0.00204872C269.593 -0.164032 276.648 9.69124 276.648 20.3127L276.648 90.3716C276.648 95.6866 272.34 99.9953 267.025 99.9953Z" fill="url(#paint0_linear_1203_1692)" fill-opacity="0.81"></path>
  <defs>
    <linearGradient id="paint0_linear_1203_1692" x1="270.481" y1="23.1413" x2="28.4368" y2="239.631" gradientUnits="userSpaceOnUse">
      <stop offset="0.100962" stop-color="#5EB1BF"></stop>
      <stop offset="1" stop-color="white" stop-opacity="0"></stop>
    </linearGradient>
  </defs>
</svg>
